<mxfile host="65bd71144e">
    <diagram id="vw11XfGpgyx9g1-TtVlN" name="Pagina-1">
        <mxGraphModel dx="953" dy="760" grid="1" gridSize="10" guides="1" tooltips="1" connect="1" arrows="1" fold="1" page="1" pageScale="1" pageWidth="1169" pageHeight="827" background="#ffffff" math="0" shadow="0">
            <root>
                <mxCell id="0"/>
                <mxCell id="1" parent="0"/>
                <mxCell id="13" style="edgeStyle=none;html=1;exitX=0.25;exitY=1;exitDx=0;exitDy=0;entryX=0.5;entryY=0;entryDx=0;entryDy=0;fontFamily=CMU;fontSize=12;fontSource=https%3A%2F%2Ffonts.googleapis.com%2Fcss%3Ffamily%3DCMU;labelBackgroundColor=none;fillColor=none;strokeColor=#00005A;fontColor=#00005A;endArrow=openThin;endFill=0;" parent="1" source="2" target="3" edge="1">
                    <mxGeometry relative="1" as="geometry">
                        <Array as="points">
                            <mxPoint x="270" y="100"/>
                            <mxPoint x="180" y="100"/>
                        </Array>
                    </mxGeometry>
                </mxCell>
                <mxCell id="14" style="edgeStyle=none;html=1;exitX=0.75;exitY=1;exitDx=0;exitDy=0;entryX=0.5;entryY=0;entryDx=0;entryDy=0;fontFamily=CMU;fontSize=12;fontSource=https%3A%2F%2Ffonts.googleapis.com%2Fcss%3Ffamily%3DCMU;labelBackgroundColor=none;fillColor=none;strokeColor=#00005A;fontColor=#00005A;endArrow=openThin;endFill=0;" parent="1" source="2" target="7" edge="1">
                    <mxGeometry relative="1" as="geometry">
                        <Array as="points">
                            <mxPoint x="330" y="120"/>
                            <mxPoint x="420" y="120"/>
                        </Array>
                    </mxGeometry>
                </mxCell>
                <mxCell id="2" value="Signature" style="rounded=0;whiteSpace=wrap;html=1;fontFamily=CMU;fontSource=https%3A%2F%2Ffonts.googleapis.com%2Fcss%3Ffamily%3DCMU;labelBackgroundColor=none;fillColor=#00005A;strokeColor=#00005A;fontColor=#FFFFFF;shadow=1;" parent="1" vertex="1">
                    <mxGeometry x="240" y="40" width="120" height="40" as="geometry"/>
                </mxCell>
                <mxCell id="15" style="edgeStyle=none;html=1;exitX=0.5;exitY=1;exitDx=0;exitDy=0;entryX=0.5;entryY=0;entryDx=0;entryDy=0;fontFamily=CMU;fontSize=12;fontSource=https%3A%2F%2Ffonts.googleapis.com%2Fcss%3Ffamily%3DCMU;fontColor=#00005A;labelBackgroundColor=none;fillColor=none;strokeColor=#00005A;endArrow=openThin;endFill=0;" parent="1" source="3" target="4" edge="1">
                    <mxGeometry relative="1" as="geometry"/>
                </mxCell>
                <mxCell id="3" value="&lt;span style=&quot;caret-color: rgb(232, 234, 237); text-align: left;&quot;&gt;Σ&lt;font style=&quot;font-size: 12px;&quot;&gt;-Terms&lt;/font&gt;&lt;/span&gt;" style="rounded=0;whiteSpace=wrap;html=1;fontFamily=CMU;fontSource=https%3A%2F%2Ffonts.googleapis.com%2Fcss%3Ffamily%3DCMU;labelBackgroundColor=none;fillColor=#00005A;strokeColor=#00005A;fontColor=#FFFFFF;shadow=1;" parent="1" vertex="1">
                    <mxGeometry x="120" y="120" width="120" height="40" as="geometry"/>
                </mxCell>
                <mxCell id="16" style="edgeStyle=none;html=1;exitX=0.5;exitY=1;exitDx=0;exitDy=0;entryX=0.5;entryY=0;entryDx=0;entryDy=0;fontFamily=CMU;fontSize=12;fontSource=https%3A%2F%2Ffonts.googleapis.com%2Fcss%3Ffamily%3DCMU;fontColor=#00005A;labelBackgroundColor=none;fillColor=none;strokeColor=#00005A;endArrow=openThin;endFill=0;" parent="1" source="4" target="5" edge="1">
                    <mxGeometry relative="1" as="geometry"/>
                </mxCell>
                <mxCell id="4" value="&lt;div style=&quot;text-align: left;&quot;&gt;&lt;font&gt;&lt;span style=&quot;caret-color: rgb(232, 234, 237);&quot;&gt;Substitution&lt;/span&gt;&lt;/font&gt;&lt;/div&gt;" style="rounded=0;whiteSpace=wrap;html=1;fontFamily=CMU;fontSource=https%3A%2F%2Ffonts.googleapis.com%2Fcss%3Ffamily%3DCMU;labelBackgroundColor=none;fillColor=#00005A;strokeColor=#00005A;fontColor=#FFFFFF;shadow=1;" parent="1" vertex="1">
                    <mxGeometry x="120" y="200" width="120" height="40" as="geometry"/>
                </mxCell>
                <mxCell id="19" style="edgeStyle=none;html=1;exitX=0.5;exitY=1;exitDx=0;exitDy=0;entryX=0.25;entryY=0;entryDx=0;entryDy=0;fontFamily=CMU;fontSize=12;fontSource=https%3A%2F%2Ffonts.googleapis.com%2Fcss%3Ffamily%3DCMU;fontColor=#00005A;labelBackgroundColor=none;fillColor=none;strokeColor=#00005A;endArrow=openThin;endFill=0;" parent="1" source="5" target="10" edge="1">
                    <mxGeometry relative="1" as="geometry">
                        <Array as="points">
                            <mxPoint x="180" y="340"/>
                            <mxPoint x="270" y="340"/>
                        </Array>
                    </mxGeometry>
                </mxCell>
                <mxCell id="5" value="&lt;div style=&quot;text-align: left;&quot;&gt;&lt;font&gt;&lt;span style=&quot;caret-color: rgb(232, 234, 237);&quot;&gt;Mapping&lt;/span&gt;&lt;/font&gt;&lt;/div&gt;" style="rounded=0;whiteSpace=wrap;html=1;fontFamily=CMU;fontSource=https%3A%2F%2Ffonts.googleapis.com%2Fcss%3Ffamily%3DCMU;labelBackgroundColor=none;fillColor=#00005A;strokeColor=#00005A;fontColor=#FFFFFF;shadow=1;" parent="1" vertex="1">
                    <mxGeometry x="120" y="280" width="120" height="40" as="geometry"/>
                </mxCell>
                <mxCell id="17" style="edgeStyle=none;html=1;exitX=0.5;exitY=1;exitDx=0;exitDy=0;entryX=0.5;entryY=0;entryDx=0;entryDy=0;fontFamily=CMU;fontSize=12;fontSource=https%3A%2F%2Ffonts.googleapis.com%2Fcss%3Ffamily%3DCMU;fontColor=#00005A;labelBackgroundColor=none;fillColor=none;strokeColor=#00005A;endArrow=openThin;endFill=0;" parent="1" source="7" target="8" edge="1">
                    <mxGeometry relative="1" as="geometry"/>
                </mxCell>
                <mxCell id="7" value="&lt;span style=&quot;caret-color: rgb(232, 234, 237); text-align: left;&quot;&gt;Equation over Σ&lt;/span&gt;" style="rounded=0;whiteSpace=wrap;html=1;fontFamily=CMU;fontSource=https%3A%2F%2Ffonts.googleapis.com%2Fcss%3Ffamily%3DCMU;labelBackgroundColor=none;fillColor=#00005A;strokeColor=#00005A;fontColor=#FFFFFF;shadow=1;" parent="1" vertex="1">
                    <mxGeometry x="360" y="150" width="120" height="40" as="geometry"/>
                </mxCell>
                <mxCell id="18" style="edgeStyle=none;html=1;exitX=0.5;exitY=1;exitDx=0;exitDy=0;entryX=0.75;entryY=0;entryDx=0;entryDy=0;fontFamily=CMU;fontSize=12;fontSource=https%3A%2F%2Ffonts.googleapis.com%2Fcss%3Ffamily%3DCMU;fontColor=#00005A;labelBackgroundColor=none;fillColor=none;strokeColor=#00005A;endArrow=openThin;endFill=0;" parent="1" source="8" target="10" edge="1">
                    <mxGeometry relative="1" as="geometry">
                        <Array as="points">
                            <mxPoint x="420" y="330"/>
                            <mxPoint x="330" y="330"/>
                        </Array>
                    </mxGeometry>
                </mxCell>
                <mxCell id="8" value="&lt;span style=&quot;caret-color: rgb(232, 234, 237); text-align: left;&quot;&gt;Equational Theory&lt;/span&gt;" style="rounded=0;whiteSpace=wrap;html=1;fontFamily=CMU;fontSource=https%3A%2F%2Ffonts.googleapis.com%2Fcss%3Ffamily%3DCMU;labelBackgroundColor=none;fillColor=#00005A;strokeColor=#00005A;fontColor=#FFFFFF;shadow=1;" parent="1" vertex="1">
                    <mxGeometry x="360" y="250" width="120" height="40" as="geometry"/>
                </mxCell>
                <mxCell id="20" style="edgeStyle=none;html=1;exitX=0.5;exitY=1;exitDx=0;exitDy=0;entryX=0.5;entryY=0;entryDx=0;entryDy=0;fontFamily=CMU;fontSize=12;fontSource=https%3A%2F%2Ffonts.googleapis.com%2Fcss%3Ffamily%3DCMU;fontColor=#00005A;labelBackgroundColor=none;fillColor=none;strokeColor=#00005A;endArrow=openThin;endFill=0;" parent="1" source="10" target="11" edge="1">
                    <mxGeometry relative="1" as="geometry"/>
                </mxCell>
                <mxCell id="10" value="&lt;span style=&quot;caret-color: rgb(232, 234, 237); text-align: left;&quot;&gt;(Σ,E)-Unification&lt;/span&gt;" style="rounded=0;whiteSpace=wrap;html=1;fontFamily=CMU;fontSource=https%3A%2F%2Ffonts.googleapis.com%2Fcss%3Ffamily%3DCMU;labelBackgroundColor=none;fillColor=#00005A;strokeColor=#00005A;fontColor=#FFFFFF;shadow=1;" parent="1" vertex="1">
                    <mxGeometry x="240" y="360" width="120" height="40" as="geometry"/>
                </mxCell>
                <mxCell id="21" style="edgeStyle=none;html=1;exitX=0.5;exitY=1;exitDx=0;exitDy=0;entryX=0.5;entryY=0;entryDx=0;entryDy=0;fontFamily=CMU;fontSize=12;fontSource=https%3A%2F%2Ffonts.googleapis.com%2Fcss%3Ffamily%3DCMU;fontColor=#00005A;labelBackgroundColor=none;fillColor=none;strokeColor=#00005A;endArrow=openThin;endFill=0;" parent="1" source="11" target="12" edge="1">
                    <mxGeometry relative="1" as="geometry"/>
                </mxCell>
                <mxCell id="11" value="&lt;span style=&quot;caret-color: rgb(232, 234, 237); text-align: left;&quot;&gt;Convergent Theory&lt;/span&gt;" style="rounded=0;whiteSpace=wrap;html=1;fontFamily=CMU;fontSource=https%3A%2F%2Ffonts.googleapis.com%2Fcss%3Ffamily%3DCMU;labelBackgroundColor=none;fillColor=#00005A;strokeColor=#00005A;fontColor=#FFFFFF;shadow=1;" parent="1" vertex="1">
                    <mxGeometry x="240" y="440" width="120" height="40" as="geometry"/>
                </mxCell>
                <mxCell id="12" value="&lt;span style=&quot;caret-color: rgb(232, 234, 237); text-align: left;&quot;&gt;Subterm-convergent Equational Theory&lt;/span&gt;" style="rounded=0;whiteSpace=wrap;html=1;fontFamily=CMU;fontSource=https%3A%2F%2Ffonts.googleapis.com%2Fcss%3Ffamily%3DCMU;labelBackgroundColor=none;fillColor=#00005A;strokeColor=#00005A;fontColor=#FFFFFF;shadow=1;" parent="1" vertex="1">
                    <mxGeometry x="240" y="520" width="120" height="40" as="geometry"/>
                </mxCell>
            </root>
        </mxGraphModel>
    </diagram>
    <diagram name="Copia di Pagina-1" id="I-f0suePT-Y8-yNtn32q">
        <mxGraphModel dx="906" dy="682" grid="0" gridSize="10" guides="1" tooltips="1" connect="1" arrows="1" fold="1" page="1" pageScale="1" pageWidth="1169" pageHeight="827" background="#ffffff" math="0" shadow="0">
            <root>
                <mxCell id="b9sCwV-wOQikkti7wfS8-0"/>
                <mxCell id="b9sCwV-wOQikkti7wfS8-1" parent="b9sCwV-wOQikkti7wfS8-0"/>
                <mxCell id="zoN5CsXlscZMbRB8aGue-2" style="edgeStyle=none;html=1;exitX=0.5;exitY=1;exitDx=0;exitDy=0;entryX=0;entryY=0.5;entryDx=0;entryDy=0;strokeColor=#00005A;endArrow=blockThin;endFill=1;" edge="1" parent="b9sCwV-wOQikkti7wfS8-1" source="b9sCwV-wOQikkti7wfS8-4" target="b9sCwV-wOQikkti7wfS8-6">
                    <mxGeometry relative="1" as="geometry">
                        <Array as="points">
                            <mxPoint x="140" y="220"/>
                        </Array>
                    </mxGeometry>
                </mxCell>
                <mxCell id="zoN5CsXlscZMbRB8aGue-3" style="edgeStyle=none;html=1;exitX=0.5;exitY=0;exitDx=0;exitDy=0;entryX=0;entryY=0.5;entryDx=0;entryDy=0;strokeColor=#00005A;endArrow=blockThin;endFill=1;" edge="1" parent="b9sCwV-wOQikkti7wfS8-1" source="b9sCwV-wOQikkti7wfS8-4" target="b9sCwV-wOQikkti7wfS8-12">
                    <mxGeometry relative="1" as="geometry">
                        <Array as="points">
                            <mxPoint x="140" y="60"/>
                        </Array>
                    </mxGeometry>
                </mxCell>
                <mxCell id="b9sCwV-wOQikkti7wfS8-4" value="Signature" style="rounded=0;whiteSpace=wrap;html=1;fontFamily=CMU;fontSource=https%3A%2F%2Ffonts.googleapis.com%2Fcss%3Ffamily%3DCMU;labelBackgroundColor=none;fillColor=#00005A;strokeColor=#00005A;fontColor=#FFFFFF;shadow=1;" vertex="1" parent="b9sCwV-wOQikkti7wfS8-1">
                    <mxGeometry x="80" y="120" width="120" height="40" as="geometry"/>
                </mxCell>
                <mxCell id="zoN5CsXlscZMbRB8aGue-4" style="edgeStyle=none;html=1;exitX=1;exitY=0.5;exitDx=0;exitDy=0;entryX=0;entryY=0.5;entryDx=0;entryDy=0;strokeColor=#00005A;endArrow=blockThin;endFill=1;" edge="1" parent="b9sCwV-wOQikkti7wfS8-1" source="b9sCwV-wOQikkti7wfS8-6" target="b9sCwV-wOQikkti7wfS8-8">
                    <mxGeometry relative="1" as="geometry"/>
                </mxCell>
                <mxCell id="b9sCwV-wOQikkti7wfS8-6" value="&lt;span style=&quot;caret-color: rgb(232, 234, 237); text-align: left;&quot;&gt;Σ&lt;font style=&quot;font-size: 12px;&quot;&gt;-Terms&lt;/font&gt;&lt;/span&gt;" style="rounded=0;whiteSpace=wrap;html=1;fontFamily=CMU;fontSource=https%3A%2F%2Ffonts.googleapis.com%2Fcss%3Ffamily%3DCMU;labelBackgroundColor=none;fillColor=#00005A;strokeColor=#00005A;fontColor=#FFFFFF;shadow=1;" vertex="1" parent="b9sCwV-wOQikkti7wfS8-1">
                    <mxGeometry x="240" y="200" width="120" height="40" as="geometry"/>
                </mxCell>
                <mxCell id="zoN5CsXlscZMbRB8aGue-5" style="edgeStyle=none;html=1;exitX=1;exitY=0.5;exitDx=0;exitDy=0;strokeColor=#00005A;endArrow=blockThin;endFill=1;" edge="1" parent="b9sCwV-wOQikkti7wfS8-1" source="b9sCwV-wOQikkti7wfS8-8" target="b9sCwV-wOQikkti7wfS8-10">
                    <mxGeometry relative="1" as="geometry"/>
                </mxCell>
                <mxCell id="b9sCwV-wOQikkti7wfS8-8" value="&lt;div style=&quot;text-align: left;&quot;&gt;&lt;font&gt;&lt;span style=&quot;caret-color: rgb(232, 234, 237);&quot;&gt;Substitution&lt;/span&gt;&lt;/font&gt;&lt;/div&gt;" style="rounded=0;whiteSpace=wrap;html=1;fontFamily=CMU;fontSource=https%3A%2F%2Ffonts.googleapis.com%2Fcss%3Ffamily%3DCMU;labelBackgroundColor=none;fillColor=#00005A;strokeColor=#00005A;fontColor=#FFFFFF;shadow=1;" vertex="1" parent="b9sCwV-wOQikkti7wfS8-1">
                    <mxGeometry x="400" y="200" width="120" height="40" as="geometry"/>
                </mxCell>
                <mxCell id="zoN5CsXlscZMbRB8aGue-10" style="edgeStyle=none;html=1;exitX=1;exitY=0.5;exitDx=0;exitDy=0;strokeColor=#00005A;endArrow=blockThin;endFill=1;entryX=0;entryY=0.25;entryDx=0;entryDy=0;" edge="1" parent="b9sCwV-wOQikkti7wfS8-1" source="b9sCwV-wOQikkti7wfS8-10" target="b9sCwV-wOQikkti7wfS8-16">
                    <mxGeometry relative="1" as="geometry">
                        <mxPoint x="380" y="290" as="targetPoint"/>
                        <Array as="points">
                            <mxPoint x="720" y="220"/>
                            <mxPoint x="720" y="260"/>
                            <mxPoint x="160" y="260"/>
                            <mxPoint x="160" y="370"/>
                        </Array>
                    </mxGeometry>
                </mxCell>
                <mxCell id="b9sCwV-wOQikkti7wfS8-10" value="&lt;div style=&quot;text-align: left;&quot;&gt;&lt;font&gt;&lt;span style=&quot;caret-color: rgb(232, 234, 237);&quot;&gt;Mapping&lt;/span&gt;&lt;/font&gt;&lt;/div&gt;" style="rounded=0;whiteSpace=wrap;html=1;fontFamily=CMU;fontSource=https%3A%2F%2Ffonts.googleapis.com%2Fcss%3Ffamily%3DCMU;labelBackgroundColor=none;fillColor=#00005A;strokeColor=#00005A;fontColor=#FFFFFF;shadow=1;" vertex="1" parent="b9sCwV-wOQikkti7wfS8-1">
                    <mxGeometry x="560" y="200" width="120" height="40" as="geometry"/>
                </mxCell>
                <mxCell id="zoN5CsXlscZMbRB8aGue-6" style="edgeStyle=none;html=1;exitX=1;exitY=0.5;exitDx=0;exitDy=0;entryX=0;entryY=0.5;entryDx=0;entryDy=0;strokeColor=#00005A;endArrow=blockThin;endFill=1;" edge="1" parent="b9sCwV-wOQikkti7wfS8-1" source="b9sCwV-wOQikkti7wfS8-12" target="b9sCwV-wOQikkti7wfS8-14">
                    <mxGeometry relative="1" as="geometry"/>
                </mxCell>
                <mxCell id="b9sCwV-wOQikkti7wfS8-12" value="&lt;span style=&quot;caret-color: rgb(232, 234, 237); text-align: left;&quot;&gt;Equation over Σ&lt;/span&gt;" style="rounded=0;whiteSpace=wrap;html=1;fontFamily=CMU;fontSource=https%3A%2F%2Ffonts.googleapis.com%2Fcss%3Ffamily%3DCMU;labelBackgroundColor=none;fillColor=#00005A;strokeColor=#00005A;fontColor=#FFFFFF;shadow=1;" vertex="1" parent="b9sCwV-wOQikkti7wfS8-1">
                    <mxGeometry x="300" y="40" width="120" height="40" as="geometry"/>
                </mxCell>
                <mxCell id="zoN5CsXlscZMbRB8aGue-11" style="edgeStyle=none;html=1;exitX=1;exitY=0.5;exitDx=0;exitDy=0;entryX=0;entryY=0.75;entryDx=0;entryDy=0;strokeColor=#00005A;endArrow=blockThin;endFill=1;" edge="1" parent="b9sCwV-wOQikkti7wfS8-1" source="b9sCwV-wOQikkti7wfS8-14" target="b9sCwV-wOQikkti7wfS8-16">
                    <mxGeometry relative="1" as="geometry">
                        <Array as="points">
                            <mxPoint x="760" y="60"/>
                            <mxPoint x="760" y="300"/>
                            <mxPoint x="120" y="300"/>
                            <mxPoint x="120" y="390"/>
                        </Array>
                    </mxGeometry>
                </mxCell>
                <mxCell id="b9sCwV-wOQikkti7wfS8-14" value="&lt;span style=&quot;caret-color: rgb(232, 234, 237); text-align: left;&quot;&gt;Equational Theory&lt;/span&gt;" style="rounded=0;whiteSpace=wrap;html=1;fontFamily=CMU;fontSource=https%3A%2F%2Ffonts.googleapis.com%2Fcss%3Ffamily%3DCMU;labelBackgroundColor=none;fillColor=#00005A;strokeColor=#00005A;fontColor=#FFFFFF;shadow=1;" vertex="1" parent="b9sCwV-wOQikkti7wfS8-1">
                    <mxGeometry x="500" y="40" width="120" height="40" as="geometry"/>
                </mxCell>
                <mxCell id="zoN5CsXlscZMbRB8aGue-8" style="edgeStyle=none;html=1;exitX=1;exitY=0.5;exitDx=0;exitDy=0;entryX=0;entryY=0.5;entryDx=0;entryDy=0;strokeColor=#00005A;endArrow=blockThin;endFill=1;" edge="1" parent="b9sCwV-wOQikkti7wfS8-1" source="b9sCwV-wOQikkti7wfS8-16" target="b9sCwV-wOQikkti7wfS8-18">
                    <mxGeometry relative="1" as="geometry"/>
                </mxCell>
                <mxCell id="b9sCwV-wOQikkti7wfS8-16" value="&lt;span style=&quot;caret-color: rgb(232, 234, 237); text-align: left;&quot;&gt;(Σ,E)-Unification&lt;/span&gt;" style="rounded=0;whiteSpace=wrap;html=1;fontFamily=CMU;fontSource=https%3A%2F%2Ffonts.googleapis.com%2Fcss%3Ffamily%3DCMU;labelBackgroundColor=none;fillColor=#00005A;strokeColor=#00005A;fontColor=#FFFFFF;shadow=1;" vertex="1" parent="b9sCwV-wOQikkti7wfS8-1">
                    <mxGeometry x="200" y="360" width="120" height="40" as="geometry"/>
                </mxCell>
                <mxCell id="zoN5CsXlscZMbRB8aGue-9" style="edgeStyle=none;html=1;exitX=1;exitY=0.5;exitDx=0;exitDy=0;strokeColor=#00005A;endArrow=blockThin;endFill=1;" edge="1" parent="b9sCwV-wOQikkti7wfS8-1" source="b9sCwV-wOQikkti7wfS8-18" target="b9sCwV-wOQikkti7wfS8-19">
                    <mxGeometry relative="1" as="geometry"/>
                </mxCell>
                <mxCell id="b9sCwV-wOQikkti7wfS8-18" value="&lt;span style=&quot;caret-color: rgb(232, 234, 237); text-align: left;&quot;&gt;Convergent Theory&lt;/span&gt;" style="rounded=0;whiteSpace=wrap;html=1;fontFamily=CMU;fontSource=https%3A%2F%2Ffonts.googleapis.com%2Fcss%3Ffamily%3DCMU;labelBackgroundColor=none;fillColor=#00005A;strokeColor=#00005A;fontColor=#FFFFFF;shadow=1;" vertex="1" parent="b9sCwV-wOQikkti7wfS8-1">
                    <mxGeometry x="400" y="360" width="120" height="40" as="geometry"/>
                </mxCell>
                <mxCell id="b9sCwV-wOQikkti7wfS8-19" value="&lt;span style=&quot;caret-color: rgb(232, 234, 237); text-align: left;&quot;&gt;Subterm-convergent Equational Theory&lt;/span&gt;" style="rounded=0;whiteSpace=wrap;html=1;fontFamily=CMU;fontSource=https%3A%2F%2Ffonts.googleapis.com%2Fcss%3Ffamily%3DCMU;labelBackgroundColor=none;fillColor=#00005A;strokeColor=#00005A;fontColor=#FFFFFF;shadow=1;" vertex="1" parent="b9sCwV-wOQikkti7wfS8-1">
                    <mxGeometry x="600" y="360" width="120" height="40" as="geometry"/>
                </mxCell>
            </root>
        </mxGraphModel>
    </diagram>
</mxfile>